# xmcd
#
# Track frame offsets:
# 225
# 20185
# 40690
# 63459
# 93067
# 117420
# 140142
# 161911
# 179331
# 201945
# 227736
# 250142
# 269562
# 288481
# 304904
#
# Disc length: 4355 seconds
#
#
# Revision: 0
# Processed by: cddbd v1.5.1PL0 Copyright (c) Steve Scherf et al.
# Submitted via: FreeRIP 2.941 
#
DISCID=e511000f
DTITLE=Varios - The Very Best Blues of the world
DYEAR=1998
DGENRE=Blues
TTITLE0=No Doubt "Don`t speak"
TTITLE1=Tony Braxton "Un-Break my heart"
TTITLE2=Sinead O`Connor "Nothing Compares 2 U"
TTITLE3=Bryan Adams "(Evrertthing I Do i Do it  For You )"
TTITLE4=Phil Collins "Another Day In Paradise"
TTITLE5=George Michael "Careles Whisper"
TTITLE6=Chris Isaac "Wickend Game"
TTITLE7=Barbara Striesand "Woman In Love"
TTITLE8=Foreigner "I Want To Know What Love Is"
TTITLE9=Kool and The Gang "Cherish"
TTITLE10=R.E.M "Everybody Hurts"
TTITLE11=Chris De Burgh "The Lady In Red"
TTITLE12=Youssou N`Dour and Neneh Cherry "7 Seconds"
TTITLE13=Sam Brown "Stop"
TTITLE14=Black "Wonderful Life"
EXTD=The Very Best Album
EXTT0=
EXTT1=
EXTT2=
EXTT3=
EXTT4=
EXTT5=
EXTT6=
EXTT7=
EXTT8=
EXTT9=
EXTT10=
EXTT11=
EXTT12=
EXTT13=
EXTT14=
PLAYORDER=
